<svg id="Capa_1" data-name="Capa 1" xmlns="http://www.w3.org/2000/svg" viewBox="0 0 500 500"><path d="M308.38,356c-5.94-1.28-12-2.27-17.81-3.9-12.05-3.37-23.27-8.77-34.07-15-30.62-17.69-56.78-40.71-80-67.21-15.07-17.19-28.23-35.71-38.38-56.24C131.87,201,127,187.89,125.27,173.79c-1-8.85-.76-17.65,3.58-25.75A31.93,31.93,0,0,1,134,141c7.07-7.29,14.4-14.33,21.5-21.6,9.85-10.08,25.14-9,34.44,0,11.08,10.8,22,21.78,32.85,32.81,9.56,9.72,9.63,24.28.14,33.14a23.41,23.41,0,0,1-7.23,4.42c-6.63,2.62-11.87,6.6-14.76,13.29a20.36,20.36,0,0,0-.93,13.7c3.54,13.23,11.06,24.13,20.09,34.09,9.4,10.37,20,19.2,32.72,25.36,5.58,2.72,11.32,5.13,17.76,4.29,8.73-1.14,15.38-5.35,18.83-13.67,2.14-5.16,4.66-9.87,9.57-12.95a22.79,22.79,0,0,1,28.65,3.2q17.13,16.69,33.84,33.83c9.1,9.38,8.76,24.34-.47,33.73-7.29,7.41-14.7,14.7-22,22.07-5.2,5.22-11.6,7.86-18.79,8.84a16.33,16.33,0,0,0-1.8.45Z"/></svg>