<svg id="Capa_1" data-name="Capa 1" xmlns="http://www.w3.org/2000/svg" viewBox="0 0 212 116"><path d="M60.27,20.48c2.13.27,4.26.48,6.37.81a38.34,38.34,0,0,1,17.5,7A31.16,31.16,0,0,1,95.85,47.16C97.91,56.49,97.13,65.55,92.5,74,86.59,84.81,77.23,90.28,65,90.56c-11.47.26-22.94.08-34.41.09-3.86,0-7.73,0-11.6,0a7.77,7.77,0,0,1-1.62-.33v-.59a5.85,5.85,0,0,1,1.27-.45c.92-.1,1.85-.06,2.78-.13,2.33-.17,4.68-.28,7-.61a3.35,3.35,0,0,0,3.05-3.17,17,17,0,0,0,.2-2.57q0-15.83,0-31.64V26.76a3.7,3.7,0,0,0-3-4,19.3,19.3,0,0,0-3.22-.52c-1.61-.17-3.23-.21-4.84-.38-1-.11-1.14-.41-.69-1.37ZM43.62,55.81v1.78q0,14.58,0,29.17c0,1.37.27,1.76,1.42,1.76,5.95,0,11.9.18,17.83-.58,4.18-.54,8.07-1.76,11.24-4.71a26.36,26.36,0,0,0,6.16-8.08c5.15-11,6-22.33,1.68-33.87-3.61-9.52-10.19-15.55-20.31-17.54-5.51-1.09-11.06-.86-16.61-.82-1.05,0-1.4.53-1.4,1.74Z"/><path d="M196,63.34c-.05,0-.12.07-.15.12-1.44,2.77-3.36,2.92-5.16.38-1.25-1.77-2.18-2-3.85-.71a27.18,27.18,0,0,0-3.86,3.8,7.65,7.65,0,0,0-1.62,5c0,4.79,0,9.58.08,14.37,0,2.09.81,2.84,2.85,3.09,1,.12,2,.15,3,.29.25,0,.46.35.69.53a2.09,2.09,0,0,1-.73.31q-9.37,0-18.74,0c-.28,0-.56-.29-.84-.44a2.75,2.75,0,0,1,.79-.42c1-.11,1.92-.09,2.86-.24,2-.31,2.83-1.19,2.92-3.24.07-1.78,0-3.57,0-5.36q0-7.58,0-15.17c0-2.18-1-2.92-3.1-2.34-.73.2-1.44.51-2.18.66a3.33,3.33,0,0,1-1.13-.2c.27-.28.49-.69.83-.82,1.63-.63,3.32-1.11,4.93-1.79,2-.84,3.88-1.82,5.82-2.75,1.48-.71,2-.38,2,1.23,0,2.24,0,4.48.22,6.81.17-.25.33-.5.51-.74,1.4-1.88,2.73-3.82,4.22-5.62a6.48,6.48,0,0,1,4.08-2.27c2.56-.4,4.29.67,5.61,3.33Z"/><path d="M144.57,56.77a19.45,19.45,0,0,1,9.35,2.08c5,2.66,7.33,7.13,8.14,12.55,1.68,11.37-6.33,18.43-15.52,19.69a22.17,22.17,0,0,1-8.08-.26c-6.82-1.56-10.69-5.93-12-12.72a17.56,17.56,0,0,1,10-19.81A19.73,19.73,0,0,1,144.57,56.77Zm10,17.88c0-.66-.07-1.85-.2-3a17.94,17.94,0,0,0-3.59-9.6c-3.64-4.5-11.72-5-15.15,1.46a18,18,0,0,0-2,8.41,21.68,21.68,0,0,0,3.45,12.8,9.81,9.81,0,0,0,5.45,4.22c3.86,1.09,8.34-1.12,10.27-5.06A20.18,20.18,0,0,0,154.53,74.65Z"/><path d="M115.28,73v12.7c0,2.74.78,3.61,3.5,3.88.76.07,1.53,0,2.28.14.26,0,.49.31.74.47-.26.13-.51.38-.77.38-2.54,0-5.09,0-7.63,0H103a3,3,0,0,1-.79,0c-.16,0-.41-.26-.39-.34s.21-.45.36-.48a9.19,9.19,0,0,1,1.48-.09c3.64,0,4.53-.9,4.53-4.52q0-9.66,0-19.33c0-2.36-1-3.07-3.27-2.4-.79.23-1.58.48-2.38.65-.23.05-.51-.15-.77-.24.16-.25.27-.62.5-.72a10.46,10.46,0,0,1,1.69-.56,36.56,36.56,0,0,0,8.55-3.62c2.41-1.36,2.81-1.1,2.81,1.62C115.27,64.63,115.28,68.8,115.28,73Z"/><path d="M115.85,41.39a4.59,4.59,0,1,1-4.53-4.65A4.55,4.55,0,0,1,115.85,41.39Z"/></svg>