<svg id="Capa_1" data-name="Capa 1" xmlns="http://www.w3.org/2000/svg" viewBox="0 0 272 120"><defs><style>.cls-1,.cls-2{fill:#fff;}.cls-2{font-size:20.39px;font-family:Urbanist-Light, Urbanist;font-weight:300;letter-spacing:0.19em;}.cls-3{letter-spacing:0.2em;}.cls-4{letter-spacing:0.2em;}.cls-5{letter-spacing:0.2em;}</style></defs><path class="cls-1" d="M23.75,60V7.67h9.86L55.7,43.5V7.67h9.11V60H55L32.87,24.14V60Z"/><path class="cls-1" d="M101.39,22.61h9.12V60h-9.12L101,55.34a12.1,12.1,0,0,1-4,4.06A11.19,11.19,0,0,1,91,61a19.24,19.24,0,0,1-7.77-1.57A20.31,20.31,0,0,1,72.53,48.66,19.65,19.65,0,0,1,71,40.88a19.09,19.09,0,0,1,5.6-13.67,19.6,19.6,0,0,1,6.13-4.15,18.68,18.68,0,0,1,7.48-1.49,13.3,13.3,0,0,1,6.63,1.64,17.16,17.16,0,0,1,5,4.19ZM90.75,52.17a9.24,9.24,0,0,0,5.15-1.46,9.93,9.93,0,0,0,3.51-3.94,12.43,12.43,0,0,0,0-11,10,10,0,0,0-3.53-3.94,9.27,9.27,0,0,0-5.13-1.46,9.77,9.77,0,0,0-5.25,1.48,11.09,11.09,0,0,0,0,18.85A9.79,9.79,0,0,0,90.75,52.17Z"/><path class="cls-1" d="M138,31.73h-7.25V60h-9.11V31.73h-5.53V22.61h5.53V10.88h9.11V22.61H138Z"/><path class="cls-1" d="M143.24,46.15V22.61h9.12V43.76a7.71,7.71,0,0,0,1.08,4,8.16,8.16,0,0,0,2.9,2.88,7.8,7.8,0,0,0,4,1.06,7.88,7.88,0,0,0,4-1.06,8.16,8.16,0,0,0,2.87-2.88,7.72,7.72,0,0,0,1.09-4V22.61h9.11l0,37.37h-9.12l0-3.4a14.48,14.48,0,0,1-4.6,3.19A13.76,13.76,0,0,1,158,61a14.36,14.36,0,0,1-7.44-2,15.23,15.23,0,0,1-5.36-5.34A14.3,14.3,0,0,1,143.24,46.15Z"/><path class="cls-1" d="M185,60l0-37.37h9.12l0,3.33a14,14,0,0,1,10.27-4.37,15,15,0,0,1,4.11.59l-3.58,9.2a7.6,7.6,0,0,0-2.84-.56,7.79,7.79,0,0,0-4,1.06,8,8,0,0,0-2.88,2.88,7.76,7.76,0,0,0-1.06,4V60Z"/><path class="cls-1" d="M227.35,61A17.41,17.41,0,0,1,218,58.3a19.59,19.59,0,0,1-6.77-7.14,20.71,20.71,0,0,1-1.06-17.54,20.09,20.09,0,0,1,4-6.28,18.49,18.49,0,0,1,6-4.24,18.11,18.11,0,0,1,15.26.32,18.35,18.35,0,0,1,6.18,5.06,20.58,20.58,0,0,1,3.7,7.32,20.79,20.79,0,0,1,.53,8.6H218.46a10.89,10.89,0,0,0,1.72,3.75,8.79,8.79,0,0,0,3,2.65,8.7,8.7,0,0,0,4.14,1,8,8,0,0,0,4.36-1.14A10.15,10.15,0,0,0,235,47.5l9.3,2.17a19.84,19.84,0,0,1-6.8,8.12A17.24,17.24,0,0,1,227.35,61Zm-9.19-23.39h18.39a9.89,9.89,0,0,0-1.74-4.06,10.28,10.28,0,0,0-3.27-2.89,8.5,8.5,0,0,0-4.19-1.09,8.35,8.35,0,0,0-4.14,1.07A10.12,10.12,0,0,0,220,33.47,10.73,10.73,0,0,0,218.16,37.56Z"/><text class="cls-2" transform="translate(93.34 90.98)">be<tspan class="cls-3" x="31.28" y="0">au</tspan><tspan class="cls-4" x="61.55" y="0">t</tspan><tspan class="cls-5" x="72.48" y="0">y</tspan></text></svg>