<svg id="Capa_1" data-name="Capa 1" xmlns="http://www.w3.org/2000/svg" viewBox="0 0 227 127"><path d="M77.38,65.33l8.25-4.23c6,8.39,13.86,11.34,23.87,8.8-9.43-12.87-9.39-25.63-.12-38.51a20.22,20.22,0,0,0-13.47.33,20.55,20.55,0,0,0-10.39,8.8l-8.38-4.33A28.58,28.58,0,0,1,85.28,27c9.86-7,20.29-7.93,31.2-2.64a2.11,2.11,0,0,0,2.18,0,29.56,29.56,0,0,1,39,11.22c.1.17.18.36.34.67l-8.32,4.31a20.57,20.57,0,0,0-13.14-9.63,19.94,19.94,0,0,0-10.72.49c9.18,12.82,9.29,25.55-.1,38.48,1.09.24,2.19.59,3.32.73,8.2,1,14.79-1.82,19.67-8.49.6-.84,1-.94,1.89-.47,2.34,1.26,4.72,2.43,7.22,3.71-.22.37-.37.7-.57,1-6.6,9.71-15.71,14.48-27.5,13.8a26.29,26.29,0,0,1-11.16-3.22,1.75,1.75,0,0,0-1.89,0A29.51,29.51,0,0,1,77.81,66.13C77.67,65.9,77.55,65.65,77.38,65.33Zm40.16-28.47c-7.19,7-7.77,19.66,0,27.67C125.12,57.11,125.05,43.94,117.54,36.86Z"/><path d="M125.69,90.33v14H122V85.16c1.64,0,3.28,0,4.92,0,.28,0,.59.42.8.7,2.34,3.26,4.66,6.53,7,9.79.17.24.36.48.73,1V85.21h3.7v19.23a21.82,21.82,0,0,1-2.56,0c-.33,0-.68-.42-.9-.72q-4.41-6.07-8.8-12.19l-1-1.29Z"/><path d="M96.51,104.45c.18-.45.29-.78.42-1.08,2.55-5.75,5.11-11.49,7.63-17.26a1.35,1.35,0,0,1,1.54-1c1.17.08,2.35,0,3.52,0a1.2,1.2,0,0,1,.87.49q4.17,9.25,8.28,18.55s0,.06,0,.24c-1.3,0-2.63,0-4,0-.22,0-.49-.32-.62-.56a17.71,17.71,0,0,1-1-2.27,1.27,1.27,0,0,0-1.44-1q-4.1.07-8.19,0a1.14,1.14,0,0,0-1.24.82c-.41,1-.65,2.33-1.41,2.81s-2.13.16-3.24.19ZM107.66,89l-3.26,7.64h6.68C109.94,94.14,108.87,91.72,107.66,89Z"/><path d="M146.11,104.37V85.22h13.37V89h-9.55v3.88h8.87v3.88h-8.89v3.83h11v3.79Z"/><path d="M79.9,104.39H76.19V85.22h3.68V92h9.74V85.24h3.74v19.12H89.69V96H79.9Z"/><path d="M69.11,97.37,72,99.43c-1,3.22-5.54,5.81-9.33,5.39a9.87,9.87,0,0,1-8.78-9,10,10,0,0,1,7.26-10.53,9.56,9.56,0,0,1,11,5.19l-3,2.13c-2.56-3.44-4.63-4.38-7.44-3.45a6.13,6.13,0,0,0,0,11.59C64.51,101.6,66.67,100.63,69.11,97.37Z"/><path d="M166.37,85.2H170v15.4h10.52v3.79H166.37Z"/></svg>