<svg id="Capa_1" data-name="Capa 1" xmlns="http://www.w3.org/2000/svg" viewBox="0 0 261 109"><path d="M91.7,28a21.2,21.2,0,0,1,14.63,6.28,18,18,0,0,1-1.62,27.12,22.14,22.14,0,0,1-28.23-.6,18.17,18.17,0,0,1,.76-28.07A22.24,22.24,0,0,1,91.7,28Zm14.85,19a15.59,15.59,0,1,0-15.5,15.66A15.57,15.57,0,0,0,106.55,47Z"/><path d="M148.5,63.73c-1.88,0-3.49,0-5.09,0-.34,0-.74-.42-1-.75-2.62-3.56-5.25-7.12-7.78-10.74A2.62,2.62,0,0,0,132.16,51c-3.57.07-7.14,0-10.86,0V63.67h-4.18V33.31c.37,0,.68-.06,1-.06H137a10,10,0,0,1,6.55,2.22c5.41,4.45,4,12.32-2.7,14.83-.48.18-1,.32-1.67.54ZM121.57,47.37c5,0,9.9,0,14.8,0,3.36,0,5.7-2.19,5.7-5.31s-2.32-5.19-5.66-5.2H122.66c-.35,0-.7,0-1.09.07Z"/><path d="M183.38,63.73c1.84-3.61,3.56-7,5.28-10.39q4.89-9.59,9.75-19.18a1.35,1.35,0,0,1,1.46-.93c1.42.06,2.84,0,4.26.05a1.63,1.63,0,0,1,1.18.69q7.49,14.6,14.9,29.24a4.35,4.35,0,0,1,.19.52c-1.68,0-3.27,0-4.86,0-.28,0-.62-.44-.78-.76-1.11-2.11-2.2-4.24-3.25-6.39a1.31,1.31,0,0,0-1.39-.86q-8.2,0-16.43,0a1.31,1.31,0,0,0-1.38.88c-1,2.08-2.12,4.11-3.12,6.19a1.51,1.51,0,0,1-1.68,1C186.22,63.68,184.92,63.73,183.38,63.73Zm18.48-26-7.21,14.14h14.43C206.67,47.16,204.33,42.58,201.86,37.75Z"/><path d="M158.87,60.35h22.44v3.38h-27.1V33.38h26.91V36.6H158.88v9.55h16.58v3.61H158.87Z"/><path d="M222.87,33.35H227V60.26h23v3.45H222.87Z"/><path d="M39.94,33.35h3.74V60.42h23v3.3H39.94Z"/><path d="M156,83.48a2.48,2.48,0,0,1-3.25-1.22,6.15,6.15,0,0,0-.6-.77c-2.53-3.28-2.63-3.32-7.05-2.78v4.87h-2.23V71.88c.37,0,.68-.1,1-.11,2.36,0,4.71-.06,7.06,0a6.88,6.88,0,0,1,2.67.64,2.87,2.87,0,0,1,1.79,3,3.24,3.24,0,0,1-2.23,2.78l-.9.36Zm-10.75-6.2c2.09,0,4,0,6,0a2,2,0,0,0,2.08-2,2,2,0,0,0-1.93-2.08c-2-.07-4,0-6.13,0Z"/><path d="M169,79.82h1.8a6.27,6.27,0,0,0,8,2,2,2,0,0,0,.95-1.39,1.79,1.79,0,0,0-1-1.32c-1.29-.46-2.66-.67-4-1A20.81,20.81,0,0,1,171.1,77c-2.06-1-2.1-3.18-.19-4.43,2.2-1.46,6.94-1.46,9.06.12A11.91,11.91,0,0,1,181.78,75c-1.39.22-2.32.48-2.85-.84a1.9,1.9,0,0,0-1.37-.88,18.91,18.91,0,0,0-4.32,0,2.33,2.33,0,0,0-1.5,1.45c-.23.92.69,1.27,1.46,1.44,1.82.4,3.65.76,5.47,1.14.24,0,.48.1.71.17,1.67.55,2.55,1.48,2.58,2.71a3.13,3.13,0,0,1-2.44,3,10.81,10.81,0,0,1-8.93-.6A3,3,0,0,1,169,79.82Z"/><path d="M122.29,83.54c2.2-3.83,4.34-7.58,6.53-11.3.44-.76,2.73-.7,3.18.06,2.15,3.71,4.28,7.42,6.42,11.15-1.88.5-2.25.47-3-1.17a2.72,2.72,0,0,0-3.18-1.81,39.24,39.24,0,0,1-4.85,0c-.8,0-1.33.16-1.61.93-.07.23-.28.41-.36.63C125,83.55,123.93,84,122.29,83.54ZM127.21,79h6.25l-3.14-5.46c-.91,1.56-1.7,2.92-2.48,4.28C127.64,78.13,127.47,78.49,127.21,79Z"/><path d="M111,78.55v5h-2.18V71.91c3.16,0,6.28-.14,9.36.06a3.32,3.32,0,0,1,3.08,3.46,3.53,3.53,0,0,1-3.5,3.1C115.6,78.61,113.41,78.55,111,78.55Zm.08-1.26h5.06a9.91,9.91,0,0,0,1.09,0,2.08,2.08,0,0,0,2-2,1.92,1.92,0,0,0-1.81-2.06c-2.08-.09-4.16,0-6.29,0Z"/><path d="M67.84,33.49c-.63,1.24-1.16,2.31-1.7,3.38C65.08,38.92,64,41,63,43a1.39,1.39,0,0,1-1.57.95c-.79-.08-1.6,0-2.55,0,1.44-3.42,2.81-6.69,4.22-10a1,1,0,0,1,.7-.49C65.07,33.47,66.35,33.49,67.84,33.49Z"/><path d="M161.68,75.34h2.08v8.24h-2.08Z"/><path d="M175.26,28.55,164.84,32.3l-.11-.17c1-1.19,2-2.38,3.05-3.55a1,1,0,0,1,.62-.31c2.28,0,4.57,0,6.85,0Z"/><path d="M161.71,71.82h2v2.07h-2Z"/></svg>