<svg id="Capa_1" data-name="Capa 1" xmlns="http://www.w3.org/2000/svg" viewBox="0 0 203 113"><path d="M180,35.39c0-.34-.06-.6-.09-.86a22.94,22.94,0,0,0-1.54-6.69,14,14,0,0,0-6.73-7.13,20.6,20.6,0,0,0-6.17-2,36,36,0,0,0-9.38-.25A25.14,25.14,0,0,0,147.3,21l-.41.24.32.3a13.28,13.28,0,0,1,4.65,7.64A21.53,21.53,0,0,1,152.4,35a15.32,15.32,0,0,1-3,8.81,1.58,1.58,0,0,0-.13.22,2,2,0,0,0,.38.2c1.68.5,3.35,1.06,5.05,1.48,3,.76,6,1.4,9,2.14,2.74.68,5.49,1.32,8.17,2.24a23,23,0,0,1,5.55,2.63,11.8,11.8,0,0,1,5.07,7.59,19.75,19.75,0,0,1,.39,5.58,14.46,14.46,0,0,1-2.22,6.87,15.88,15.88,0,0,1-4.89,4.73,24,24,0,0,1-7.42,3,33.72,33.72,0,0,1-7.43.77,40.14,40.14,0,0,1-5.26-.31,25.2,25.2,0,0,1-9.9-3.28,17.28,17.28,0,0,1-7.6-9.43,23.94,23.94,0,0,1-1.26-7.06c0-.51,0-1,0-1.53,0-.32,0-.36.37-.37s.88,0,1.34,0c0,.37.06.71.08,1.05a28.25,28.25,0,0,0,.95,6.33,15.93,15.93,0,0,0,5,7.95,19,19,0,0,0,5.37,3.17,2.56,2.56,0,0,0,.37,0c0-.19,0-.33,0-.47-.32-2-.45-4.08-.57-6.13,0-.74,0-1.48-.07-2.22,0-1,0-2,0-3a31.21,31.21,0,0,0-.54-6,12,12,0,0,0-1.84-4.38,10,10,0,0,0-4.59-3.45,17.85,17.85,0,0,0-4.39-1.08,39.86,39.86,0,0,0-5-.28H110.7c-.77,0-.76-.06-.76.75,0,1.6,0,3.19,0,4.79a9.55,9.55,0,0,0,.72,3.83c2.44,6.09,4.84,12.21,7.26,18.32.15.4.29.79.45,1.21a4.07,4.07,0,0,1-1.18.08c-.92,0-.75.08-1.07-.7q-2.88-7.23-5.77-14.46c-.06-.15-.13-.3-.23-.53a2,2,0,0,0-.12.31c0,.64,0,1.28,0,1.92V79.79a12.71,12.71,0,0,1-1.75,0c0-.22,0-.41,0-.6,0-2.51,0-5,0-7.54,0-1.37,0-2.73,0-4.09,0-2.47,0-4.94,0-7.4v-.56c-.43-.13-30.79-.15-31.35,0,0,.18,0,.37,0,.56V79c0,.89.07.83-.82.83-.48,0-1,0-1.43,0a.73.73,0,0,1-.69-.37c-1-1.39-1.95-2.76-2.93-4.15l-.36-.46c-.11.27-.19.44-.26.61-.53,1.29-1,2.59-1.57,3.88-.23.56-.26.57-.84.51-.28,0-.56,0-.84,0h-.56l.18-.53c.78-1.92,1.56-3.84,2.36-5.74a1,1,0,0,0-.12-1.07Q61.49,62,54.06,51.5L38.66,29.78q-3.25-4.59-6.52-9.16a1,1,0,0,0-.31-.32c-.12,1.23-.07,2.45-.08,3.67s0,2.5,0,3.75V79.78a8.18,8.18,0,0,1-1.63,0c-.12-.38-.17-60.75-.06-61.75a.19.19,0,0,1,.12-.07l2.21,0c.26,0,.37.18.49.35l2,2.82L44.6,34.87,57.83,53.53,68.62,68.74l1.22,1.72c.08.11.17.2.29.34a3.61,3.61,0,0,0,.2-.36c1.45-3.57,2.88-7.13,4.34-10.69a5.46,5.46,0,0,0,.4-2.11V32.44q0-5.4,0-10.81c0-1.05,0-2.1,0-3.15,0-.13,0-.26,0-.41a1.13,1.13,0,0,1,.28-.09h1.13c.24,0,.37.1.37.35s0,.3,0,.44q0,15.19,0,30.38c0,1.45,0,2.89.05,4.34A1,1,0,0,0,77,54a2,2,0,0,0,.17-.32c1.91-4.76,3.81-9.52,5.74-14.27q3.75-9.27,7.53-18.53c.34-.84.69-1.67,1-2.52a.52.52,0,0,1,.59-.39q.73,0,1.47,0a.52.52,0,0,1,.58.4q1.56,4,3.14,8,3,7.68,6.08,15.36c1.51,3.83,3,7.68,4.49,11.52a.76.76,0,0,0,.24.35,2,2,0,0,0,0-.34q0-3.1,0-6.21c0-5.07,0-10.13,0-15.19,0-4.37,0-8.75,0-13.12V18c.25,0,.47-.05.69-.05h11.74c4.42,0,8.85,0,13.27,0a31.3,31.3,0,0,1,7.28.8,17.22,17.22,0,0,1,3.35,1.15.86.86,0,0,0,.91,0,23.7,23.7,0,0,1,7.6-2.77,35.08,35.08,0,0,1,6.47-.59,38.85,38.85,0,0,1,5.5.31,22.14,22.14,0,0,1,9,3.09,15.32,15.32,0,0,1,5.76,6.66A21.34,21.34,0,0,1,181.61,35c0,.24-.06.38-.31.39ZM110,49.07h23a23.88,23.88,0,0,0,5.52-.6,18.36,18.36,0,0,0,7.13-3.32c.13-.1.24-.21.39-.35l-.46-.29c-.67-.45-1.35-.87-2-1.35a11.53,11.53,0,0,1-4.62-7.48,17.57,17.57,0,0,1-.23-4.46,19.26,19.26,0,0,1,.35-2.64,13.35,13.35,0,0,1,3.19-6.14c.31-.35.64-.69,1-1-.05-.07-.07-.12-.1-.14l-.23-.1a24.34,24.34,0,0,0-6.7-1.31c-1.29-.08-2.59-.08-3.88-.08h-22c-.2,0-.31.09-.31.29s0,.3,0,.45V48.33C109.94,48.55,110,48.78,110,49.07Zm29.49.68v.13a2.8,2.8,0,0,0,.31.09,28.28,28.28,0,0,1,4,1.07A10.06,10.06,0,0,1,149,55a14.33,14.33,0,0,1,2,5.48,45.37,45.37,0,0,1,.4,5.7c.08,1.7.11,3.41.16,5.12a49.7,49.7,0,0,0,.64,6.67.69.69,0,0,0,.6.66,31.58,31.58,0,0,0,5.4.82,41.85,41.85,0,0,0,5.71,0A26.59,26.59,0,0,0,170.64,78a17.38,17.38,0,0,0,6.89-4.28,12.27,12.27,0,0,0,3-5A14.49,14.49,0,0,0,180.9,62a11.83,11.83,0,0,0-1.25-3.82,12.84,12.84,0,0,0-5.76-5.27,30.32,30.32,0,0,0-6.26-2.23c-1.54-.39-3.1-.74-4.65-1.1L156,48a51.06,51.06,0,0,1-7.38-2.14,1.25,1.25,0,0,0-1.47.25,17.82,17.82,0,0,1-7.3,3.54C139.73,49.66,139.6,49.71,139.47,49.75ZM92.9,19.85c-.41.47-15.21,37.14-15.29,37.81,0,0,0,.05.08.05a.32.32,0,0,0,.14,0h29.29l.24,0,0,0s0,0,.06-.12C102.68,45,97.72,32.5,92.9,19.85Zm54.5,23.49a1.1,1.1,0,0,0,.17-.14,3.24,3.24,0,0,0,.24-.31,14.71,14.71,0,0,0,2.82-8.81,22.53,22.53,0,0,0-.26-3.38,11.81,11.81,0,0,0-4.61-8c-.18-.14-.37-.26-.57-.39a3.13,3.13,0,0,0-.38.28,11.33,11.33,0,0,0-3.11,4,13.64,13.64,0,0,0-.93,8.94,9.75,9.75,0,0,0,2.36,4.64,14,14,0,0,0,3.23,2.56C146.7,43,147.05,43.15,147.4,43.34ZM75,64.24c-.11.2-.19.32-.24.44-1.06,2.59-2.11,5.17-3.17,7.75a.52.52,0,0,0,0,.55q1.59,2.19,3.16,4.4a2.51,2.51,0,0,0,.29.2c0-4.42,0-8.75,0-13.08A1.31,1.31,0,0,0,75,64.24Z"/></svg>